<svg width="684" height="382" viewBox="0 0 684 382" fill="none" xmlns="http://www.w3.org/2000/svg">
<path d="M27.1863 301V259.6L121.986 124H179.286V256.6H203.886V301H179.286V340H127.986V301H27.1863ZM131.586 180.4L81.1863 256.6H131.586V180.4Z" fill="#6A63FE"/>
<g filter="url(#filter0_d_435_535)">
<path d="M455.186 291V249.6L549.986 114H607.286V246.6H631.886V291H607.286V330H555.986V291H455.186ZM559.586 170.4L509.186 246.6H559.586V170.4Z" fill="#6A63FE"/>
</g>
<g filter="url(#filter1_d_435_535)">
<path d="M342 341C401.094 341 449 290.408 449 228C449 165.592 401.094 115 342 115C282.906 115 235 165.592 235 228C235 290.408 282.906 341 342 341Z" fill="#6A63FE"/>
</g>
<path d="M331.535 346.763C349.1 346.763 363.338 330.497 363.338 310.432C363.338 290.367 349.1 274.102 331.535 274.102C313.971 274.102 299.732 290.367 299.732 310.432C299.732 330.497 313.971 346.763 331.535 346.763Z" fill="#35335A"/>
<path d="M374.914 198.074C374.913 200.1 374.564 202.106 373.884 203.978C373.205 205.85 372.21 207.55 370.956 208.983C369.701 210.415 368.212 211.551 366.573 212.326C364.935 213.101 363.178 213.499 361.405 213.499C359.631 213.498 357.875 213.099 356.236 212.323C354.598 211.547 353.109 210.41 351.856 208.977C350.602 207.544 349.607 205.843 348.929 203.971C348.251 202.099 347.902 200.092 347.902 198.066C347.903 193.974 349.327 190.05 351.861 187.158C354.394 184.265 357.83 182.641 361.412 182.642C364.993 182.643 368.428 184.269 370.961 187.163C373.493 190.057 374.915 193.982 374.914 198.074Z" fill="#35335A"/>
<path d="M251.035 260.678C258.355 260.678 264.289 253.899 264.289 245.537C264.289 237.174 258.355 230.396 251.035 230.396C243.715 230.396 237.781 237.174 237.781 245.537C237.781 253.899 243.715 260.678 251.035 260.678Z" fill="#35335A"/>
<path d="M252.228 184.783C256.407 184.783 259.794 180.913 259.794 176.14C259.794 171.366 256.407 167.496 252.228 167.496C248.049 167.496 244.661 171.366 244.661 176.14C244.661 180.913 248.049 184.783 252.228 184.783Z" fill="#35335A"/>
<path d="M302.742 179.049C302.742 182.634 301.495 186.073 299.276 188.608C297.056 191.143 294.046 192.568 290.908 192.568C287.769 192.568 284.759 191.143 282.54 188.608C280.321 186.073 279.074 182.634 279.074 179.049C279.074 175.464 280.321 172.025 282.54 169.49C284.759 166.955 287.769 165.53 290.908 165.53C294.046 165.53 297.056 166.955 299.276 169.49C301.495 172.025 302.742 175.464 302.742 179.049Z" fill="#35335A"/>
<path d="M378.333 164.279C387.538 164.279 395 155.754 395 145.239C395 134.724 387.538 126.199 378.333 126.199C369.128 126.199 361.667 134.724 361.667 145.239C361.667 155.754 369.128 164.279 378.333 164.279Z" fill="#35335A"/>
<defs>
<filter id="filter0_d_435_535" x="451.186" y="114" width="184.7" height="224" filterUnits="userSpaceOnUse" color-interpolation-filters="sRGB">
<feFlood flood-opacity="0" result="BackgroundImageFix"/>
<feColorMatrix in="SourceAlpha" type="matrix" values="0 0 0 0 0 0 0 0 0 0 0 0 0 0 0 0 0 0 127 0" result="hardAlpha"/>
<feOffset dy="4"/>
<feGaussianBlur stdDeviation="2"/>
<feComposite in2="hardAlpha" operator="out"/>
<feColorMatrix type="matrix" values="0 0 0 0 0 0 0 0 0 0 0 0 0 0 0 0 0 0 1 0"/>
<feBlend mode="normal" in2="BackgroundImageFix" result="effect1_dropShadow_435_535"/>
<feBlend mode="normal" in="SourceGraphic" in2="effect1_dropShadow_435_535" result="shape"/>
</filter>
<filter id="filter1_d_435_535" x="207.7" y="91.7" width="268.6" height="280.6" filterUnits="userSpaceOnUse" color-interpolation-filters="sRGB">
<feFlood flood-opacity="0" result="BackgroundImageFix"/>
<feColorMatrix in="SourceAlpha" type="matrix" values="0 0 0 0 0 0 0 0 0 0 0 0 0 0 0 0 0 0 127 0" result="hardAlpha"/>
<feOffset dy="4"/>
<feGaussianBlur stdDeviation="13.65"/>
<feComposite in2="hardAlpha" operator="out"/>
<feColorMatrix type="matrix" values="0 0 0 0 0 0 0 0 0 0 0 0 0 0 0 0 0 0 1 0"/>
<feBlend mode="normal" in2="BackgroundImageFix" result="effect1_dropShadow_435_535"/>
<feBlend mode="normal" in="SourceGraphic" in2="effect1_dropShadow_435_535" result="shape"/>
</filter>
</defs>
</svg>
