<svg width="24" height="24" viewBox="0 0 24 24" fill="none" xmlns="http://www.w3.org/2000/svg">
<g clip-path="url(#clip0_512_631)">
<path d="M10.249 1.64618C10.6376 1.58843 11.0334 1.68547 11.3513 1.91644C11.6691 2.14741 11.8837 2.49387 11.9488 2.88134C12.0139 3.26882 11.9243 3.66637 11.6994 3.98853C11.4745 4.3107 11.1322 4.53175 10.746 4.60418C8.99914 4.90083 7.41366 5.80621 6.27043 7.15993C5.12721 8.51364 4.50003 10.2283 4.5 12.0002C4.5 13.9893 5.29018 15.897 6.6967 17.3035C8.10322 18.71 10.0109 19.5002 12 19.5002V22.5002C6.201 22.5002 1.5 17.8002 1.5 12.0002C1.5 6.85518 5.226 2.49018 10.249 1.64618Z" fill="url(#paint0_linear_512_631)"/>
<path d="M16.892 4.29763C17.0235 4.15087 17.1827 4.03148 17.3604 3.94627C17.5381 3.86107 17.7309 3.81171 17.9277 3.80103C18.1245 3.79035 18.3214 3.81856 18.5073 3.88403C18.6932 3.94951 18.8643 4.05097 19.011 4.18263C20.1102 5.16646 20.9892 6.37136 21.5905 7.71845C22.1917 9.06555 22.5017 10.5244 22.5 11.9996C22.5 17.7996 17.799 22.4996 12 22.4996V19.4996C13.5182 19.4996 15.0006 19.0389 16.2513 18.1784C17.502 17.3179 18.4621 16.098 19.0047 14.6802C19.5473 13.2623 19.6469 11.7131 19.2902 10.2375C18.9335 8.76179 18.1373 7.42913 17.007 6.41563C16.7109 6.14999 16.5325 5.77763 16.5109 5.38044C16.4893 4.98325 16.6264 4.59376 16.892 4.29763Z" fill="url(#paint1_linear_512_631)"/>
</g>
<defs>
<linearGradient id="paint0_linear_512_631" x1="526.5" y1="111.637" x2="526.5" y2="1917.38" gradientUnits="userSpaceOnUse">
<stop stop-color="#F8F8F8"/>
<stop offset="0.0001" stop-color="#F8F8F8" stop-opacity="0"/>
<stop offset="1" stop-color="#F8F8F8" stop-opacity="0"/>
</linearGradient>
<linearGradient id="paint1_linear_512_631" x1="537" y1="288.799" x2="537" y2="1633.57" gradientUnits="userSpaceOnUse">
<stop stop-color="#F3DFDF"/>
<stop offset="0.0001" stop-color="#B50B0B"/>
<stop offset="1" stop-color="#FF1616"/>
</linearGradient>
<clipPath id="clip0_512_631">
<rect width="24" height="24" fill="white"/>
</clipPath>
</defs>
</svg>
