<svg width="1174" height="941" viewBox="0 0 1174 941" fill="none" xmlns="http://www.w3.org/2000/svg">
<circle cx="2.5" cy="535.5" r="2.5" fill="white"/>
<circle cx="384.5" cy="280.5" r="2.5" fill="white"/>
<circle cx="937.5" cy="152.5" r="2.5" fill="white"/>
<circle cx="1171.5" cy="300.5" r="2.5" fill="white"/>
<circle cx="358.5" cy="781.5" r="2.5" fill="white"/>
<circle cx="487.5" cy="155.5" r="2.5" fill="white"/>
<circle cx="57.5" cy="673.5" r="2.5" fill="white"/>
<circle cx="389.5" cy="305.5" r="2.5" fill="white"/>
<circle cx="276.5" cy="451.5" r="2.5" fill="white"/>
<circle cx="543.5" cy="789.5" r="2.5" fill="white"/>
<circle cx="329.5" cy="113.5" r="2.5" fill="white"/>
<circle cx="1149.5" cy="131.5" r="2.5" fill="white"/>
<circle cx="2.5" cy="360.5" r="2.5" fill="white"/>
<circle cx="701.5" cy="180.5" r="2.5" fill="white"/>
<circle cx="567.5" cy="938.5" r="2.5" fill="white"/>
<circle cx="222.5" cy="365.5" r="2.5" fill="white"/>
<circle cx="271.5" cy="256.5" r="2.5" fill="white"/>
<circle cx="381.5" cy="938.5" r="2.5" fill="white"/>
<circle cx="124.5" cy="91.5" r="2.5" fill="white"/>
<circle cx="1056.5" cy="261.5" r="2.5" fill="white"/>
<circle cx="106.5" cy="329.5" r="2.5" fill="white"/>
<circle cx="177.5" cy="624.5" r="2.5" fill="white"/>
</svg>
